<svg width="22" height="22" viewBox="0 0 22 22" xmlns="http://www.w3.org/2000/svg">
    <g fill="none" fill-rule="evenodd">
        <path d="m3.126 16.227 6.43-11.553c.443-.899 1.711-.899 2.155 0l6.43 11.553c.406.811-.173 1.773-1.073 1.773H4.21c-.9 0-1.479-.96-1.084-1.773zm6.43-.912c0 .599.43 1.061 1.046 1.061.615 0 1.048-.462 1.048-1.061v-.025c0-.6-.433-1.062-1.048-1.062s-1.046.462-1.046 1.062v.025zm.517-2.46c.037.337.258.548.566.548.309 0 .53-.211.566-.549l.53-4.695c.037-.362-.159-.65-.493-.65h-1.206c-.332 0-.53.288-.493.65l.53 4.695z" fill="currentColor"/>
        <path d="M0 0h22v22H0z"/>
    </g>
</svg>
