<svg width="20" height="20" viewBox="0 0 20 20" xmlns="http://www.w3.org/2000/svg">
    <g fill="none" fill-rule="evenodd">
        <path d="M0 0h20v20H0z"/>
        <path d="m15.826 13.025-.688-1.17a1.795 1.795 0 0 1-.241-.893v-3.36a4.59 4.59 0 0 0-2.335-3.985 4.729 4.729 0 0 0-4.67 0 4.59 4.59 0 0 0-2.334 3.985v3.36c0 .313-.084.621-.241.894l-.689 1.17a.942.942 0 0 0 .002.952.971.971 0 0 0 .838.477h9.518a.971.971 0 0 0 .838-.477.942.942 0 0 0 .002-.953zM9.91 17c.523 0 1.03-.19 1.436-.538.406-.348.685-.832.791-1.371H7.682c.106.54.385 1.023.79 1.371.406.348.914.538 1.437.538z" fill="currentColor" fill-rule="nonzero"/>
    </g>
</svg>
