<svg width="20" height="20" viewBox="0 0 20 20" xmlns="http://www.w3.org/2000/svg">
    <path d="M1.949 16.73V3.373a.32.32 0 0 1 .32-.32h1.284a.32.32 0 0 1 .32.32v13.359a.32.32 0 0 1-.32.32H2.269a.32.32 0 0 1-.32-.32zm16.008-6.464-4.658 4.66a.32.32 0 0 1-.454 0l-.974-.975a.32.32 0 0 1 0-.453l2.447-2.448H6.395a.32.32 0 0 1-.321-.32V9.35a.32.32 0 0 1 .32-.32h7.923l-2.446-2.448a.32.32 0 0 1 0-.454l.976-.975a.32.32 0 0 1 .453 0l4.657 4.66a.32.32 0 0 1 0 .454z" fill="currentColor" fill-rule="evenodd"/>
</svg>
