<svg width="20" height="20" viewBox="0 0 20 20" xmlns="http://www.w3.org/2000/svg">
    <defs>
        <path d="M4.506 0c-.077.015-.141.075-.141.159v.894H.6a.502.502 0 0 0-.499.507v.898h11.794V1.56a.502.502 0 0 0-.499-.507H7.598V.159c0-.084-.063-.144-.144-.159H4.506zM1.188 3.203l.009 9.745c.018.424.297.949.709.969h3.206l4.427-.01c.427 0 1.238-.293 1.255-.727V3.203H1.188zm1.222 8.593.037-7.269 7.151-.014-.052 7.153c-.018.433-.353.795-.779.795l-5.475.02h-.001c-.426 0-.864-.252-.881-.685zm5.033-6.133v5.804a.328.328 0 0 0 .324.329h.518c.179 0 .289-.147.289-.329V5.663c0-.182-.11-.328-.289-.328h-.382l-.136-.001a.327.327 0 0 0-.324.329zm-2.028 0v5.804a.328.328 0 0 0 .324.329h.518a.327.327 0 0 0 .324-.329V5.663a.325.325 0 0 0-.324-.328h-.519l.001-.001a.327.327 0 0 0-.324.329zm-1.702-.311a.325.325 0 0 0-.323.329v5.803a.323.323 0 0 0 .094.231c.06.063.143.098.229.098h.518a.327.327 0 0 0 .324-.329V5.681a.326.326 0 0 0-.324-.329h-.518z" id="wl9vtfaxma"/>
    </defs>
    <g fill="none" fill-rule="evenodd">
        <path d="M14.796 12.939h-.003v-2.487h.001l-.001-.006a.51.51 0 0 0-.509-.503l-.352.001a.505.505 0 0 0-.502.476h-.002l.001 2.819h.001l.002 3.156c0 .281.227.508.508.508l.351-.001c.27 0 .485-.213.502-.479 0-.01.005-.019.005-.029l-.002-3.455zM6.56 12.939h-.004v-2.487h.002c0-.002 0-.004-.002-.006a.509.509 0 0 0-.508-.503l-.352.001a.505.505 0 0 0-.502.476h-.002l.001 2.819h.001l.001 3.156a.509.509 0 0 0 .51.508l.35-.001a.505.505 0 0 0 .501-.479c.001-.01.006-.019.006-.029l-.002-3.455zM7.569 9.028h-.002v2.487h.003l.002 3.238c.046.025.088.06.141.06h.519a.327.327 0 0 0 .323-.329V8.68a.326.326 0 0 0-.323-.328h-.518a.321.321 0 0 0-.316.308c.1.09.168.216.17.361v.007M15.396 4.053h-3.798V3.16c0-.085-.064-.146-.143-.16H8.507c-.078.014-.142.075-.142.16v.893H4.6a.503.503 0 0 0-.5.507v1.079h11.796v-1.08a.504.504 0 0 0-.5-.506" fill="#6E7077"/>
        <path d="m13.336 11.5.002 3.456c0 .01-.005.018-.005.03a.504.504 0 0 1-.466.471l-.005.005h-.023c.004 0 .007.003.012.003h-.02c.003 0 .005-.003.008-.003h-.835l-4.293.017h-.217l.009.003-.211-.002h.202-.399l-.03-.002c.009 0 .015-.004.023-.004l-.007-.006a.503.503 0 0 1-.457-.497v-.168l-.002-.008-.004-7.269 6.73-.013-.015 2.32V11.5h.003zM5.189 6.204l.008 9.744c.02.62.335.97.94.97h2.975l4.688-.01c.618 0 .995-.338.995-.985l-.001-9.72H5.189z" fill="#6E7077"/>
        <path d="M10.256 8.335h-.518a.325.325 0 0 0-.322.328v5.804a.325.325 0 0 0 .322.328h.518a.326.326 0 0 0 .325-.328V8.663a.325.325 0 0 0-.325-.328M12.285 8.335h-.518a.326.326 0 0 0-.324.328v5.804a.326.326 0 0 0 .324.328h.518c.044 0 .069-.031.104-.047l-.001-2.947h-.001l-.001-2.82h.002a.493.493 0 0 1 .178-.345c-.012-.167-.113-.301-.281-.301" fill="#6E7077"/>
        <path fill="#FFF" d="M7.71 15.48H7.68zM6.624 14.804v.167c.01.26.187.48.442.507h-.001.03v.002h.394"/>
        <path d="M7.39 14.484a.328.328 0 0 0 .093.232c.024.024.06.022.09.038l-.002-3.24h-.004V9.029h.001v-.006a.492.492 0 0 0-.17-.361c0 .007-.008.012-.008.02v5.803z" fill="#6E7077"/>
        <path d="m12.85 15.465-.012-.002-.008.002h.02zM13.296 14.81c-.018.432-.326.648-.881.65l-.412.002h.858l.005-.005a.502.502 0 0 0 .466-.472c0-.01.006-.019.006-.03l-.002-3.455h-.004V9.834l-.036 4.975z" fill="#FFF"/>
        <path d="M12.387 8.981h-.002l.002 2.82.001 2.947a.3.3 0 0 0 .186-.282V8.663c0-.01-.008-.017-.009-.028a.496.496 0 0 0-.178.346" fill="#6E7077"/>
        <path d="M12.824 8.505c.012 0 .022.006.034.007.01-.001.02-.006.03-.006l-.064-.001z" fill="#FFF"/>
    </g>
</svg>
