<svg width="20" height="20" viewBox="0 0 20 20" xmlns="http://www.w3.org/2000/svg">
    <g fill="none" fill-rule="evenodd">
        <path d="M0 0h20v20H0z"/>
        <path d="M12.897 8.659c-.178.354-.489.746-.934 1.178l-.568.541c-.356.342-.56.742-.612 1.203l-.028.428h-.002a.33.33 0 0 1-.329.326H9.287a.33.33 0 0 1-.328-.326h-.002v-.005h.001c0-.654.08-1.175.238-1.563.16-.389.45-.772.875-1.149.424-.378.705-.685.846-.921.14-.237.21-.487.21-.75 0-.792-.365-1.189-1.095-1.189-.347 0-.624.107-.832.321-.209.213-.317.508-.327.882h-.001a.33.33 0 0 1-.33.33H7.167a.33.33 0 0 1-.33-.33c.009-.894.298-1.595.867-2.1.569-.507 1.345-.76 2.328-.76.993 0 1.763.24 2.31.721.548.48.822 1.159.822 2.035.002.391-.09.778-.267 1.128m-2.18 6.265c-.208.2-.484.301-.826.301-.341 0-.616-.1-.825-.301a1.014 1.014 0 0 1-.312-.763c0-.312.106-.57.32-.773.212-.203.485-.305.817-.305.333 0 .606.102.819.305.213.203.32.46.32.773 0 .308-.105.562-.313.763M10 2a8 8 0 1 0 0 16 8 8 0 0 0 0-16" fill="#6E7077"/>
    </g>
</svg>
