<svg xmlns="http://www.w3.org/2000/svg" width="175" height="50" viewBox="0 0 185 40">
    <defs>
        <linearGradient id="1vlov8mcsa" x1="61.972%" x2="36.444%" y1="-15.98%" y2="120.691%">
            <stop offset="0%" stop-color="#6E4695" />
            <stop offset="50%" stop-color="#DA358B" />
            <stop offset="86%" stop-color="#EC6707" />
        </linearGradient>
    </defs>
    <g fill="none" fill-rule="evenodd">
        <g>
            <g>
                <path fill="#FFF" d="M1.584 24.715c.989 1.768 2.943 3.593 6.247 3.593 1.946 0 3.813-.691 5.044-1.946 1.606-1.62 2.49-4.06 2.49-6.87 0-2.949-.921-5.448-2.594-7.038-.904-.839-2.477-1.84-4.835-1.84-1.876 0-3.73.788-4.796 1.999V4H0v20.715h1.584zm3.238-10.306c.768-.682 1.67-1.029 2.681-1.029 1.147 0 2.108.398 2.936 1.218 1.427 1.41 1.726 3.419 1.726 4.855 0 1.512-.288 3.597-1.66 4.953-.751.744-1.761 1.121-3.002 1.121-1.011 0-1.913-.346-2.682-1.031-1.205-1.05-1.816-2.746-1.816-5.043s.611-3.993 1.817-5.044zm19.99 13.886c1.876 0 3.73-.788 4.796-2.001v8.614h3.14V14.194h-1.699c-.989-1.767-2.829-3.593-6.132-3.593-1.946 0-3.812.691-5.044 1.945-1.606 1.621-2.49 4.062-2.49 6.871 0 2.949.921 5.448 2.595 7.038.903.839 2.476 1.84 4.834 1.84zm-2.57-13.792c.752-.743 1.762-1.12 3.003-1.12 1.011 0 1.913.347 2.681 1.03 1.205 1.05 1.817 2.746 1.817 5.043s-.612 3.993-1.818 5.044c-.767.683-1.669 1.029-2.68 1.029-1.148 0-2.109-.398-2.937-1.217-1.426-1.41-1.726-3.419-1.726-4.856 0-1.511.288-3.596 1.66-4.953z" transform="translate(-890 -233) translate(890 233)" />
                <path fill="url(#1vlov8mcsa)" fill-rule="nonzero" d="M47.756 0c-.772 0-1.398.626-1.398 1.398v37.203c0 .773.626 1.399 1.398 1.399h.002c.772 0 1.398-.626 1.398-1.399V1.398C49.156.626 48.53 0 47.758 0h-.002z" transform="translate(-890 -233) translate(890 233)" />
                <path fill="#FFF" d="M62.8 27.777V9.444h12.573v2.12H65.186v5.585h7.694v2.172h-7.694v6.336h10.187v2.12H62.8zM84.156 17.1c-.536-.466-1.287-.828-2.278-.828-1.126 0-1.904.439-2.493 1.009-1.019.982-1.448 2.43-1.448 3.956 0 1.525.402 3.05 1.421 4.034.59.568 1.394.93 2.52.93.991 0 1.742-.362 2.278-.827 1.126-.957 1.528-2.507 1.528-4.137 0-1.63-.402-3.181-1.528-4.137zm1.662 10.679l-.16-1.706c-.778 1.318-2.627 2.043-4.156 2.043-1.662 0-3.056-.647-3.94-1.527-1.287-1.266-1.958-3.154-1.958-5.327 0-2.25.724-4.162 2.092-5.43.884-.801 2.198-1.474 3.86-1.474 1.69 0 3.244.776 3.995 1.862v-7.11h2.278v18.669h-2.01zm14.044 0l-.187-1.966c-.698 1.5-2.628 2.302-4.156 2.302-2.842 0-4.772-1.889-4.772-4.81v-8.61h2.306v8.3c0 1.965.858 3.13 3.002 3.13 1.931 0 3.512-1.657 3.512-3.828v-7.603h2.306v13.084h-2.011zm10.737-13.421c1.61 0 3.057.543 3.995 1.423.911.853 1.581 1.914 1.69 3.336h-2.307c-.107-.905-.563-1.527-1.072-2.017-.536-.491-1.42-.829-2.306-.829-1.072 0-1.93.415-2.52.931-1.153 1.01-1.474 2.613-1.474 4.034 0 1.424.321 3 1.474 4.01.59.515 1.448.956 2.52.956.885 0 1.77-.337 2.306-.828.51-.492.992-1.113 1.098-2.017h2.28c-.108 1.422-.804 2.508-1.716 3.361-.938.88-2.359 1.398-3.968 1.398-1.715 0-3.243-.673-4.235-1.604-1.475-1.396-2.09-3.206-2.09-5.276 0-2.067.615-3.878 2.09-5.274.992-.931 2.52-1.604 4.235-1.604zm16.631 7.11l-3.753.208c-1.447.078-3.003.75-3.003 2.405 0 1.164.778 2.172 2.708 2.172 1.045 0 2.118-.336 2.842-1.06.804-.801 1.206-1.862 1.206-2.948v-.776zm2.145 6.492c-1.207 0-2.01-.88-2.01-1.991h-.054c-.805 1.318-2.574 2.146-4.477 2.146-3.245 0-4.692-1.991-4.692-3.853 0-1.94 1.395-4.086 4.853-4.267l4.235-.232v-.957c0-.647-.08-1.345-.697-1.888-.455-.414-1.18-.75-2.279-.75-1.233 0-2.01.363-2.466.802-.429.414-.67.853-.724 1.525h-2.25c.025-1.111.534-1.991 1.26-2.688.936-.905 2.518-1.45 4.18-1.45 2.628 0 4.183 1.165 4.826 2.587.268.595.402 1.19.402 1.939v6.336c0 .698.35.879.805.879.241 0 .59-.077.59-.077v1.629c-.484.232-.939.31-1.502.31zm8.851-13.602c1.608 0 3.056.543 3.994 1.423.911.853 1.581 1.914 1.69 3.336h-2.307c-.107-.905-.563-1.527-1.072-2.017-.536-.491-1.42-.829-2.305-.829-1.073 0-1.93.415-2.52.931-1.154 1.01-1.475 2.613-1.475 4.034 0 1.424.321 3 1.474 4.01.59.515 1.448.956 2.521.956.885 0 1.77-.337 2.305-.828.51-.492.992-1.113 1.1-2.017h2.278c-.108 1.422-.804 2.508-1.716 3.361-.938.88-2.359 1.398-3.967 1.398-1.716 0-3.244-.673-4.236-1.604-1.475-1.396-2.09-3.206-2.09-5.276 0-2.067.615-3.878 2.09-5.274.992-.931 2.52-1.604 4.236-1.604zm11.86-2.146V9.108h3.245v3.103h-3.244zm-4.314 15.566v-1.886h4.905v-9.336h-4.37v-1.862h6.676v11.198h4.933v1.886h-12.144zm17.113-14.248l-.966-1.267 4.718-3.645 1.393 1.887-5.145 3.025zm4.61 3.672c-.59-.517-1.447-.93-2.52-.93-1.071 0-1.93.413-2.52.93-1.153 1.01-1.529 2.586-1.529 4.01 0 1.421.377 3.05 1.529 4.058.59.517 1.448.931 2.52.931 1.073 0 1.93-.414 2.52-.93 1.154-1.01 1.529-2.612 1.529-4.035 0-1.422-.375-3.025-1.53-4.034zm1.743 9.336c-.993.93-2.52 1.577-4.237 1.577-1.715 0-3.297-.647-4.288-1.577-1.475-1.398-2.118-3.233-2.118-5.302 0-2.068.643-3.904 2.118-5.3.992-.932 2.573-1.579 4.288-1.579 1.716 0 3.244.647 4.237 1.578 1.474 1.397 2.118 3.206 2.118 5.276 0 2.068-.644 3.93-2.118 5.327zm13.378 1.24v-8.3c0-1.914-.885-3.129-2.976-3.129-1.313 0-2.465.906-3.055 2.094-.456.957-.59 2.354-.59 3.362v5.973h-2.306V14.693h2.01l.188 1.965c.804-1.499 2.654-2.302 4.236-2.302 3.083 0 4.826 1.785 4.826 4.811v8.61h-2.333z" transform="translate(-890 -233) translate(890 233)" />
            </g>
        </g>
    </g>
</svg>