<svg width="210" height="60" viewBox="0 0 93 20" xmlns="http://www.w3.org/2000/svg">
    <defs>
        <linearGradient x1="50.06%" y1="-15.992%" x2="49.935%" y2="120.771%" id="7nnh572kua">
            <stop stop-color="#6E4695" offset="0%"/>
            <stop stop-color="#6E4695" offset="0%"/>
            <stop stop-color="#DA358B" offset="50%"/>
            <stop stop-color="#EC6707" offset="86.29%"/>
        </linearGradient>
    </defs>
    <g fill-rule="nonzero" fill="none">
        <path d="M11.108 7.143c.374-.372.88-.56 1.498-.56.507 0 .956.173 1.34.515.603.524.908 1.372.908 2.521 0 1.149-.305 1.997-.908 2.52a1.953 1.953 0 0 1-1.34.515 1.995 1.995 0 0 1-1.466-.608c-.712-.705-.86-1.71-.86-2.427 0-.754.143-1.799.828-2.476zm1.285 6.895c.938 0 1.863-.395 2.397-1v4.307h1.568V6.99h-.849c-.493-.883-1.411-1.796-3.061-1.796-.973 0-1.906.345-2.519.972-.801.812-1.243 2.03-1.243 3.434 0 1.474.46 2.725 1.295 3.518.447.422 1.233.921 2.412.921zM2.407 7.096a1.957 1.957 0 0 1 1.34-.514c.573 0 1.051.199 1.466.608.712.705.86 1.71.86 2.427 0 .754-.143 1.798-.828 2.476-.375.372-.88.56-1.499.56a1.96 1.96 0 0 1-1.34-.516c-.602-.526-.907-1.372-.907-2.52.002-1.147.307-1.995.908-2.521zM.79 12.249c.494.883 1.472 1.796 3.12 1.796.972 0 1.905-.344 2.52-.972.801-.811 1.243-2.03 1.243-3.434 0-1.474-.459-2.724-1.295-3.518-.452-.42-1.236-.92-2.414-.92-.938 0-1.864.394-2.397 1V1.892H0V12.25h.791z" fill="#434242"/>
        <path d="M23.853 20a.699.699 0 0 1-.7-.7V.7a.699.699 0 1 1 1.4 0v18.6c0 .387-.313.7-.7.7z" fill="url(#7nnh572kua)"/>
        <g fill="#434242">
            <path d="M31.393 13.89V4.72h6.28v1.06h-5.089v2.791h3.843V9.66h-3.843v3.168h5.089v1.06h-6.28zM42.89 13.89l-.079-.854c-.387.66-1.312 1.022-2.077 1.022-.83 0-1.525-.323-1.967-.764-.643-.633-.978-1.578-.978-2.663 0-1.123.363-2.081 1.045-2.714a2.844 2.844 0 0 1 1.928-.737c.843 0 1.62.387 1.994.93V4.556h1.14v9.334H42.89zm-.83-5.34a1.692 1.692 0 0 0-1.14-.415c-.563 0-.95.221-1.245.504-.509.491-.722 1.216-.722 1.978 0 .761.201 1.525.71 2.017.295.285.697.466 1.257.466.497 0 .871-.181 1.14-.414.563-.48.763-1.253.763-2.07 0-.816-.2-1.587-.764-2.066zM49.904 13.89l-.094-.983c-.347.749-1.312 1.15-2.076 1.15-1.42 0-2.385-.942-2.385-2.403V7.349H46.5v4.15c0 .983.43 1.564 1.499 1.564.965 0 1.754-.826 1.754-1.913V7.349h1.151v6.543h-1v-.003zM55.269 7.18c.803 0 1.525.27 1.994.712.454.427.79.958.844 1.668h-1.151c-.055-.452-.28-.765-.536-1.008-.268-.245-.71-.414-1.151-.414-.536 0-.966.206-1.258.466-.576.504-.737 1.305-.737 2.018 0 .712.161 1.498.737 2.004a1.9 1.9 0 0 0 1.258.48c.441 0 .883-.17 1.15-.415.256-.246.497-.556.55-1.008h1.138c-.055.712-.402 1.253-.856 1.68-.469.44-1.179.697-1.982.697-.856 0-1.62-.337-2.117-.801-.737-.697-1.044-1.603-1.044-2.637 0-1.035.307-1.94 1.044-2.638.496-.469 1.258-.804 2.117-.804zM64.647 13.98c-.603 0-1.005-.438-1.005-.994h-.027c-.402.66-1.285 1.074-2.236 1.074-1.62 0-2.344-.995-2.344-1.925 0-.97.697-2.042 2.424-2.134l2.116-.116v-.48c0-.322-.04-.672-.347-.942-.228-.206-.59-.375-1.139-.375-.615 0-1.005.181-1.233.402a1.102 1.102 0 0 0-.362.762H59.37c.012-.556.268-.995.63-1.345.469-.451 1.258-.724 2.09-.724 1.312 0 2.088.583 2.408 1.292.134.298.201.596.201.97v3.169c0 .35.174.439.402.439.122 0 .295-.04.295-.04v.814a1.65 1.65 0 0 1-.749.154zm-1.072-3.244-1.875.104c-.722.04-1.499.374-1.499 1.203 0 .58.39 1.087 1.352 1.087.521 0 1.057-.169 1.42-.531.401-.402.602-.93.602-1.474v-.39zM69.066 7.18c.804 0 1.526.27 1.995.712.454.427.789.958.843 1.668h-1.151c-.055-.452-.28-.765-.536-1.008-.268-.245-.71-.414-1.151-.414-.536 0-.965.206-1.258.466-.576.504-.737 1.305-.737 2.018 0 .712.161 1.498.737 2.004a1.9 1.9 0 0 0 1.258.48c.442 0 .883-.17 1.151-.415.256-.246.496-.556.548-1.008h1.14c-.055.712-.403 1.253-.857 1.68-.469.44-1.178.697-1.982.697-.856 0-1.62-.337-2.116-.801-.737-.697-1.045-1.603-1.045-2.637 0-1.035.308-1.94 1.045-2.638.496-.469 1.26-.804 2.116-.804zM72.835 13.89v-.944h2.45V8.28h-2.182v-.93h3.334v5.597h2.464v.943h-6.066zm2.156-7.784v-1.55h1.62v1.55h-1.62zM84.558 13.269c-.496.466-1.258.789-2.117.789-.858 0-1.647-.323-2.143-.79-.737-.696-1.057-1.614-1.057-2.649s.32-1.953 1.057-2.65c.496-.466 1.285-.789 2.143-.789.859 0 1.62.323 2.117.79.737.696 1.057 1.602 1.057 2.637 0 1.032-.323 1.965-1.057 2.662zm-.871-4.667a1.894 1.894 0 0 0-1.258-.467c-.536 0-.965.206-1.258.467-.576.504-.764 1.293-.764 2.005s.188 1.525.764 2.03c.295.257.725.466 1.258.466.536 0 .965-.206 1.258-.467.575-.504.764-1.305.764-2.017s-.189-1.513-.764-2.017zm-2.303-1.836-.48-.633L83.26 4.31l.697.942-2.573 1.514zM91.24 13.89V9.737c0-.957-.442-1.565-1.487-1.565-.655 0-1.23.451-1.526 1.047-.228.479-.295 1.176-.295 1.68v2.987h-1.151V7.344h1.005l.094.983c.402-.75 1.325-1.152 2.116-1.152 1.541 0 2.41.893 2.41 2.404v4.305h-1.167v.005z"/>
        </g>
    </g>
</svg>
